<?xml version="1.0" encoding="UTF-8"?>
<svg version="1.1" xmlns="http://www.w3.org/2000/svg" width="225" height="225">
<path d="M0 0 C74.25 0 148.5 0 225 0 C225 74.25 225 148.5 225 225 C150.75 225 76.5 225 0 225 C0 150.75 0 76.5 0 0 Z " fill="#FAFAFA" transform="translate(0,0)"/>
<path d="M0 0 C13.02114804 7.59566969 13.02114804 7.59566969 19.23828125 12.05078125 C22.61556378 14.43446439 26.05357021 16.71795093 29.5 19 C34.71467152 22.45444209 39.86856172 25.97464883 44.94921875 29.625 C47.25101514 31.23104648 47.25101514 31.23104648 51 33 C51 49.83 51 66.66 51 84 C78.72 84 106.44 84 135 84 C133.61505611 87.46235972 132.41555251 90.21140737 130.5 93.3125 C130.0771875 94.00988281 129.654375 94.70726563 129.21875 95.42578125 C128.8165625 95.94527344 128.414375 96.46476562 128 97 C127.34 97 126.68 97 126 97 C125.62875 98.36125 125.62875 98.36125 125.25 99.75 C123.91429502 103.22283295 122.59519712 104.42874381 120 107 C118.91169461 108.57289908 117.87268145 110.18061401 116.875 111.8125 C113.46063614 117.30517229 109.89920911 122.68359194 106.28857422 128.0480957 C103.99420851 131.43451848 103.99420851 131.43451848 102 135 C85.17 135 68.34 135 51 135 C51 162.72 51 190.44 51 219 C48.15122792 217.57561396 45.7066792 216.21677977 43.09375 214.4609375 C42.35592285 213.9669043 41.6180957 213.47287109 40.85791016 212.96386719 C39.69074463 212.17737793 39.69074463 212.17737793 38.5 211.375 C36.87239752 210.28385165 35.24479335 209.19270582 33.6171875 208.1015625 C32.82538086 207.56950195 32.03357422 207.03744141 31.21777344 206.48925781 C28.35822486 204.56904135 25.49212651 202.65888264 22.625 200.75 C21.23474609 199.821875 21.23474609 199.821875 19.81640625 198.875 C17.80652552 197.53693793 15.79310773 196.20418255 13.77734375 194.875 C12.71644531 194.17375 11.65554687 193.4725 10.5625 192.75 C9.14130859 191.81414062 9.14130859 191.81414062 7.69140625 190.859375 C6.80324219 190.24578125 5.91507812 189.6321875 5 189 C4.12956055 188.53529297 3.25912109 188.07058594 2.36230469 187.59179688 C-1.41647147 183.44592175 -0.61891833 179.08086745 -0.48828125 173.671875 C-0.48324585 172.69299316 -0.47821045 171.71411133 -0.47302246 170.70556641 C-0.44688721 167.05341247 -0.37707985 163.40167644 -0.3125 159.75 C-0.1578125 147.49875 -0.1578125 147.49875 0 135 C-27.72 135 -55.44 135 -84 135 C-82.08725326 131.17450651 -79.88635784 127.71938257 -77.5 124.1875 C-76.59234475 122.83600678 -75.68479557 121.48444232 -74.77734375 120.1328125 C-74.31440918 119.44477539 -73.85147461 118.75673828 -73.37451172 118.04785156 C-72.07824696 116.11657824 -70.78927453 114.18072541 -69.50390625 112.2421875 C-65.03319209 105.50086108 -60.51498961 98.79437323 -55.9375 92.125 C-55.45998291 91.42834229 -54.98246582 90.73168457 -54.49047852 90.01391602 C-51.12355878 85.12355878 -51.12355878 85.12355878 -50 84 C-48.43452952 83.90673284 -46.86487228 83.88254418 -45.29663086 83.88647461 C-44.28161499 83.88659546 -43.26659912 83.88671631 -42.2208252 83.88684082 C-41.14635132 83.89195679 -40.07187744 83.89707275 -38.96484375 83.90234375 C-37.98294067 83.90335083 -37.0010376 83.90435791 -35.98937988 83.90539551 C-32.30540812 83.91064555 -28.62145294 83.92460668 -24.9375 83.9375 C-16.708125 83.958125 -8.47875 83.97875 0 84 C0 56.28 0 28.56 0 0 Z " fill="#F2A111" transform="translate(87,3)"/>
<path d="M0 0 C13.02114804 7.59566969 13.02114804 7.59566969 19.23828125 12.05078125 C22.61556378 14.43446439 26.05357021 16.71795093 29.5 19 C34.71467152 22.45444209 39.86856172 25.97464883 44.94921875 29.625 C47.25101514 31.23104648 47.25101514 31.23104648 51 33 C51 60.72 51 88.44 51 117 C49.68 116.34 48.36 115.68 47 115 C45.6757713 114.63215869 44.34386088 114.28797019 43 114 C43 113.34 43 112.68 43 112 C41.35 111.67 39.7 111.34 38 111 C38 110.34 38 109.68 38 109 C37.01 109 36.02 109 35 109 C35 108.34 35 107.68 35 107 C34.2575 106.731875 33.515 106.46375 32.75 106.1875 C30 105 30 105 27.9375 103.3125 C26.11777828 101.77799813 26.11777828 101.77799813 24.05078125 102.1953125 C21.50131386 103.19567494 20.73646857 104.29150635 19.25 106.5625 C18.82203125 107.20316406 18.3940625 107.84382813 17.953125 108.50390625 C17.48132813 109.24447266 17.48132813 109.24447266 17 110 C15.02 109.67 13.04 109.34 11 109 C11 108.34 11 107.68 11 107 C9.576875 106.62875 9.576875 106.62875 8.125 106.25 C5 105 5 105 3.625 102.875 C3.41875 102.25625 3.2125 101.6375 3 101 C2.01 101 1.02 101 0 101 C0 112.22 0 123.44 0 135 C-27.72 135 -55.44 135 -84 135 C-82.08725326 131.17450651 -79.88635784 127.71938257 -77.5 124.1875 C-76.59234475 122.83600678 -75.68479557 121.48444232 -74.77734375 120.1328125 C-74.31440918 119.44477539 -73.85147461 118.75673828 -73.37451172 118.04785156 C-72.07824696 116.11657824 -70.78927453 114.18072541 -69.50390625 112.2421875 C-65.03319209 105.50086108 -60.51498961 98.79437323 -55.9375 92.125 C-55.45998291 91.42834229 -54.98246582 90.73168457 -54.49047852 90.01391602 C-51.12355878 85.12355878 -51.12355878 85.12355878 -50 84 C-48.43452952 83.90673284 -46.86487228 83.88254418 -45.29663086 83.88647461 C-44.28161499 83.88659546 -43.26659912 83.88671631 -42.2208252 83.88684082 C-41.14635132 83.89195679 -40.07187744 83.89707275 -38.96484375 83.90234375 C-37.98294067 83.90335083 -37.0010376 83.90435791 -35.98937988 83.90539551 C-32.30540812 83.91064555 -28.62145294 83.92460668 -24.9375 83.9375 C-16.708125 83.958125 -8.47875 83.97875 0 84 C0 56.28 0 28.56 0 0 Z " fill="#73B220" transform="translate(87,3)"/>
<path d="M0 0 C0.77251602 0.00359528 1.54503204 0.00719055 2.34095764 0.01089478 C3.55549622 0.01067574 3.55549622 0.01067574 4.79457092 0.01045227 C7.48380671 0.01115163 10.17297412 0.01894507 12.86219788 0.02676392 C14.72164878 0.02862802 16.58110018 0.03005196 18.44055176 0.03105164 C23.34458258 0.03487746 28.24858398 0.04470829 33.15260315 0.05575562 C38.15280255 0.06596836 43.15300669 0.07054896 48.1532135 0.07559204 C57.97158583 0.0863305 67.78993629 0.10340769 77.60829163 0.12442017 C76.84207643 3.56470834 75.64593268 5.79209838 73.60829163 8.68692017 C71.80802007 11.25317265 70.606523 13.12972605 69.60829163 16.12442017 C68.94829163 16.12442017 68.28829163 16.12442017 67.60829163 16.12442017 C67.23704163 17.20723267 67.23704163 17.20723267 66.85829163 18.31192017 C65.49845489 21.37155283 63.77911408 23.59179397 61.60829163 26.12442017 C59.62829163 25.79442017 57.64829163 25.46442017 55.60829163 25.12442017 C55.60829163 24.46442017 55.60829163 23.80442017 55.60829163 23.12442017 C54.65954163 22.87692017 53.71079163 22.62942017 52.73329163 22.37442017 C49.60829163 21.12442017 49.60829163 21.12442017 48.23329163 18.99942017 C47.92391663 18.07129517 47.92391663 18.07129517 47.60829163 17.12442017 C46.61829163 17.12442017 45.62829163 17.12442017 44.60829163 17.12442017 C44.60829163 28.34442017 44.60829163 39.56442017 44.60829163 51.12442017 C16.88829163 51.12442017 -10.83170837 51.12442017 -39.39170837 51.12442017 C-37.47896163 47.29892668 -35.27806622 43.84380274 -32.89170837 40.31192017 C-31.98405312 38.96042695 -31.07650394 37.60886249 -30.16905212 36.25723267 C-29.70611755 35.56919556 -29.24318298 34.88115845 -28.76622009 34.17227173 C-27.46995534 32.24099841 -26.1809829 30.30514557 -24.89561462 28.36660767 C-20.42490047 21.62528125 -15.90669798 14.91879339 -11.32920837 8.24942017 C-10.85169128 7.55276245 -10.37417419 6.85610474 -9.88218689 6.13833618 C-5.66371727 0.01112643 -5.66371727 0.01112643 0 0 Z " fill="#2E4D9A" transform="translate(42.39170837402344,86.87557983398438)"/>
<path d="M0 0 C3 0 3 0 4.9375 1.875 C5.618125 2.57625 6.29875 3.2775 7 4 C9.13309192 5.23512079 9.13309192 5.23512079 11 6 C11 6.66 11 7.32 11 8 C12.65 8.33 14.3 8.66 16 9 C16 9.66 16 10.32 16 11 C16.721875 11.2475 17.44375 11.495 18.1875 11.75 C21.24713266 13.10983674 23.4673738 14.82917754 26 17 C25.125 21.75 25.125 21.75 24 24 C23.34 24 22.68 24 22 24 C21.731875 24.721875 21.46375 25.44375 21.1875 26.1875 C20 29 20 29 17 34 C27.89 34 38.78 34 50 34 C50 61.39 50 88.78 50 117 C46.5357763 115.61431052 44.32330081 114.712775 41.43359375 112.6796875 C40.78938477 112.23085205 40.14517578 111.7820166 39.48144531 111.31958008 C38.80694336 110.84286865 38.13244141 110.36615723 37.4375 109.875 C36.00437222 108.87563353 34.57077467 107.87694042 33.13671875 106.87890625 C32.43337402 106.38793457 31.7300293 105.89696289 31.00537109 105.39111328 C25.32763723 101.4525051 19.53909607 97.6732858 13.76953125 93.87109375 C12.71121094 93.17113281 11.65289062 92.47117187 10.5625 91.75 C9.61503906 91.12609375 8.66757813 90.5021875 7.69140625 89.859375 C6.80324219 89.24578125 5.91507812 88.6321875 5 88 C4.13119705 87.47005432 3.2623941 86.94010864 2.36726379 86.394104 C-0.37355618 83.62220842 -0.58513948 82.00190321 -0.62210083 78.17156982 C-0.60412445 77.40048889 -0.58614807 76.62940796 -0.56762695 75.83496094 C-0.56835709 75.0150769 -0.56908722 74.19519287 -0.56983948 73.35046387 C-0.56636006 70.64442443 -0.52748381 67.94011313 -0.48828125 65.234375 C-0.47895435 63.35680074 -0.47183765 61.47921431 -0.46684265 59.60162354 C-0.44776316 54.66278413 -0.39865412 49.7246814 -0.34332275 44.78613281 C-0.29215081 39.74554409 -0.269333 34.70483618 -0.24414062 29.6640625 C-0.19053635 19.77571822 -0.10521196 9.8879204 0 0 Z " fill="#F41A22" transform="translate(87,104)"/>
<path d="M0 0 C3.12223757 1.56111878 6.10030512 3.06687008 9 5 C9 5.66 9 6.32 9 7 C9.99 7 10.98 7 12 7 C12 7.66 12 8.32 12 9 C13.32 9 14.64 9 16 9 C16 9.66 16 10.32 16 11 C16.66 11 17.32 11 18 11 C18 11.66 18 12.32 18 13 C19.32 13 20.64 13 22 13 C22 13.66 22 14.32 22 15 C22.639375 15.12375 23.27875 15.2475 23.9375 15.375 C24.618125 15.58125 25.29875 15.7875 26 16 C26.33 16.66 26.66 17.32 27 18 C28.64363134 18.72159424 30.31050386 19.39351421 32 20 C32 20.99 32 21.98 32 23 C21.44 22.67 10.88 22.34 0 22 C0 14.74 0 7.48 0 0 Z " fill="#639B1A" transform="translate(88,65)"/>
<path d="M0 0 C0.33 0 0.66 0 1 0 C1 10.89 1 21.78 1 33 C-6.59 33 -14.18 33 -22 33 C-21.01 32.505 -21.01 32.505 -20 32 C-19.34786708 29.97536745 -19.34786708 29.97536745 -19 28 C-18.34 28 -17.68 28 -17 28 C-16.67 26.68 -16.34 25.36 -16 24 C-15.34 24 -14.68 24 -14 24 C-13.87625 23.4225 -13.7525 22.845 -13.625 22.25 C-12.99351176 19.97664233 -12.11141809 18.0746471 -11 16 C-10.34 16 -9.68 16 -9 16 C-8.74347656 15.29488281 -8.48695312 14.58976562 -8.22265625 13.86328125 C-6.89065309 10.7439256 -5.26758802 8.04152036 -3.4375 5.1875 C-2.81746094 4.21167969 -2.19742188 3.23585938 -1.55859375 2.23046875 C-1.04425781 1.49441406 -0.52992187 0.75835937 0 0 Z " fill="#1A2A72" transform="translate(86,104)"/>
<path d="M0 0 C10.89 0 21.78 0 33 0 C33 7.26 33 14.52 33 22 C31.35 21.34 29.7 20.68 28 20 C28 19.34 28 18.68 28 18 C27.34 18 26.68 18 26 18 C26 17.34 26 16.68 26 16 C25.21625 15.814375 24.4325 15.62875 23.625 15.4375 C18.51228492 13.41004402 14.42106148 10.22638566 10 7 C9.01 6.34 8.02 5.68 7 5 C7 4.34 7 3.68 7 3 C6.01 3 5.02 3 4 3 C4 2.34 4 1.68 4 1 C2.68 0.67 1.36 0.34 0 0 Z " fill="#AB1010" transform="translate(104,138)"/>
<path d="M0 0 C7.26 0 14.52 0 22 0 C21.67 0.99 21.34 1.98 21 3 C20.34 3 19.68 3 19 3 C17.92474806 5.65228812 16.90543849 8.28368454 16 11 C15.34 11 14.68 11 14 11 C13.57654297 11.87857666 13.57654297 11.87857666 13.14453125 12.77490234 C12.09368143 14.81787274 10.95902112 16.69065678 9.6875 18.6015625 C9.25179687 19.25640625 8.81609375 19.91125 8.3671875 20.5859375 C7.91601562 21.25882813 7.46484375 21.93171875 7 22.625 C6.32324219 23.6459375 6.32324219 23.6459375 5.6328125 24.6875 C5.19710937 25.33976562 4.76140625 25.99203125 4.3125 26.6640625 C3.91675781 27.25654785 3.52101562 27.8490332 3.11328125 28.45947266 C2 30 2 30 0 32 C0 21.44 0 10.88 0 0 Z " fill="#CA8404" transform="translate(138,88)"/>
<path d="M0 0 C3.15330554 0.60694155 5.18888867 1.6416665 7.75 3.5625 C8.67039062 4.24505859 8.67039062 4.24505859 9.609375 4.94140625 C10.06828125 5.29074219 10.5271875 5.64007813 11 6 C9.54955729 10.10958767 7.48889248 13.43258745 5 17 C1.78147169 16.36934243 -0.50801069 15.21979305 -3.25 13.4375 C-3.95640625 12.98246094 -4.6628125 12.52742188 -5.390625 12.05859375 C-5.92171875 11.70925781 -6.4528125 11.35992187 -7 11 C-5.67855892 8.20891884 -4.19617639 5.74213611 -2.375 3.25 C-1.92898437 2.63640625 -1.48296875 2.0228125 -1.0234375 1.390625 C-0.68570313 0.93171875 -0.34796875 0.4728125 0 0 Z " fill="#F6F5F3" transform="translate(110,104)"/>
<path d="M0 0 C1.65 0 3.3 0 5 0 C4.01 1.485 4.01 1.485 3 3 C2.67078264 5.76915144 2.67078264 5.76915144 2.68115234 8.94018555 C2.66128265 10.16122482 2.64141296 11.3822641 2.62094116 12.64030457 C2.60938995 13.95912125 2.59783875 15.27793793 2.5859375 16.63671875 C2.56722653 18.00007806 2.54765317 19.36342579 2.5272522 20.72676086 C2.47591716 24.31219655 2.43629901 27.89766978 2.39910889 31.48327637 C2.35907769 35.14324238 2.30798135 38.80305201 2.2578125 42.46289062 C2.16103705 49.6418198 2.07663768 56.82082461 2 64 C1.67 64 1.34 64 1 64 C0.67 42.88 0.34 21.76 0 0 Z " fill="#F6FDEA" transform="translate(85,0)"/>
<path d="M0 0 C5.08938811 1.59043379 8.87456643 4.7446951 13 8 C12.67 8.99 12.34 9.98 12 11 C8.625 11.125 8.625 11.125 5 11 C3 9 3 9 2.875 6.375 C2.91625 5.59125 2.9575 4.8075 3 4 C1.68 3.34 0.36 2.68 -1 2 C-0.67 1.34 -0.34 0.68 0 0 Z " fill="#F5F1EF" transform="translate(110,204)"/>
<path d="M0 0 C1.26237731 2.52475462 1.09856404 4.31200466 1.0625 7.125 C1.05347656 8.03507812 1.04445313 8.94515625 1.03515625 9.8828125 C1.02355469 10.58148438 1.01195313 11.28015625 1 12 C0.01 12.33 -0.98 12.66 -2 13 C-2.33 12.34 -2.66 11.68 -3 11 C-3.33 11.99 -3.66 12.98 -4 14 C-5.32 14 -6.64 14 -8 14 C-6.2081749 6.69486692 -6.2081749 6.69486692 -3 4 C-1.98199424 2.68036291 -0.97751635 1.34990354 0 0 Z " fill="#F1A11C" transform="translate(119,114)"/>
<path d="M0 0 C1.32 0.33 2.64 0.66 4 1 C3.484375 1.598125 2.96875 2.19625 2.4375 2.8125 C1.7259375 3.8953125 1.7259375 3.8953125 1 5 C1.33 5.99 1.66 6.98 2 8 C2.66 8 3.32 8 4 8 C4 8.66 4 9.32 4 10 C1.69 9.67 -0.62 9.34 -3 9 C-3 7.02 -3 5.04 -3 3 C-2.01 2.67 -1.02 2.34 0 2 C0 1.34 0 0.68 0 0 Z " fill="#F3F6F3" transform="translate(3,131)"/>
<path d="M0 0 C0.33 0 0.66 0 1 0 C1 9.57 1 19.14 1 29 C0.67 29 0.34 29 0 29 C0 21.08 0 13.16 0 5 C-0.66 5 -1.32 5 -2 5 C-1.34 3.35 -0.68 1.7 0 0 Z " fill="#142D7F" transform="translate(84,107)"/>
<path d="M0 0 C0.33 0.66 0.66 1.32 1 2 C1.99 2 2.98 2 4 2 C4 2.66 4 3.32 4 4 C5.65 4.33 7.3 4.66 9 5 C9 5.66 9 6.32 9 7 C10.2065625 7.185625 10.2065625 7.185625 11.4375 7.375 C12.7059375 7.684375 12.7059375 7.684375 14 8 C14.33 8.66 14.66 9.32 15 10 C12.69 9.34 10.38 8.68 8 8 C8 7.34 8 6.68 8 6 C6.02 6 4.04 6 2 6 C2 5.34 2 4.68 2 4 C1.01 4 0.02 4 -1 4 C-0.67 2.68 -0.34 1.36 0 0 Z " fill="#D7AA19" transform="translate(121,110)"/>
<path d="M0 0 C0.33 0.66 0.66 1.32 1 2 C1.66 2 2.32 2 3 2 C3 2.66 3 3.32 3 4 C1.37373596 5.38232443 -0.2925002 6.71937515 -2 8 C-2.33 7.34 -2.66 6.68 -3 6 C-5.02463255 5.34786708 -5.02463255 5.34786708 -7 5 C-5.75 3.5 -5.75 3.5 -4 2 C-2.68 2 -1.36 2 0 2 C0 1.34 0 0.68 0 0 Z " fill="#F0A518" transform="translate(208,102)"/>
<path d="M0 0 C0.99 0.33 1.98 0.66 3 1 C3.33 3.31 3.66 5.62 4 8 C1.03 7.505 1.03 7.505 -2 7 C-2 6.34 -2 5.68 -2 5 C-2.66 4.67 -3.32 4.34 -4 4 C-2.68 4 -1.36 4 0 4 C0 2.68 0 1.36 0 0 Z " fill="#354794" transform="translate(100,105)"/>
<path d="M0 0 C0.99 0.66 1.98 1.32 3 2 C1.02 4.97 -0.96 7.94 -3 11 C-5 8 -5 8 -5 6 C-4.01 6 -3.02 6 -2 6 C-1.7834375 5.071875 -1.7834375 5.071875 -1.5625 4.125 C-1 2 -1 2 0 0 Z " fill="#ECAB24" transform="translate(193,125)"/>
<path d="M0 0 C1.65 0 3.3 0 5 0 C5 1.32 5 2.64 5 4 C6.65 4.33 8.3 4.66 10 5 C10 5.99 10 6.98 10 8 C6.41726669 6.34643078 3.19026533 4.32019297 0 2 C0 1.34 0 0.68 0 0 Z " fill="#E7222A" transform="translate(97,193)"/>
<path d="M0 0 C5.94 0.33 11.88 0.66 18 1 C18 1.33 18 1.66 18 2 C11.4 2.33 4.8 2.66 -2 3 C-1.34 2.67 -0.68 2.34 0 2 C0 1.34 0 0.68 0 0 Z " fill="#F8F8FF" transform="translate(142,139)"/>
<path d="M0 0 C1.32 0 2.64 0 4 0 C4.66 1.32 5.32 2.64 6 4 C4.68 5.32 3.36 6.64 2 8 C1.10869587 5.3260876 0.52268466 2.76276177 0 0 Z " fill="#F2F4F4" transform="translate(12,112)"/>
<path d="M0 0 C0.99 0.33 1.98 0.66 3 1 C3 1.99 3 2.98 3 4 C2.34 4 1.68 4 1 4 C1 4.99 1 5.98 1 7 C-0.32 7 -1.64 7 -3 7 C-3 6.01 -3 5.02 -3 4 C-2.34 4 -1.68 4 -1 4 C-0.67 2.68 -0.34 1.36 0 0 Z " fill="#F8F2DF" transform="translate(212,102)"/>
<path d="M0 0 C0.66 1.32 1.32 2.64 2 4 C1.01 5.32 0.02 6.64 -1 8 C-1.99 7.67 -2.98 7.34 -4 7 C-2.92598892 4.08482708 -2.22189824 2.22189824 0 0 Z " fill="#EAF0EF" transform="translate(21,105)"/>
<path d="M0 0 C1.32 0.66 2.64 1.32 4 2 C3.25 4.4375 3.25 4.4375 2 7 C-0.125 7.8125 -0.125 7.8125 -2 8 C-1.67 7.236875 -1.34 6.47375 -1 5.6875 C0.17436686 3.00930865 0.17436686 3.00930865 0 0 Z " fill="#33539F" transform="translate(27,101)"/>
<path d="M0 0 C1.32 0.66 2.64 1.32 4 2 C3.01 2 2.02 2 1 2 C2.32 2.66 3.64 3.32 5 4 C4.01 4.66 3.02 5.32 2 6 C0.35 5.01 -1.3 4.02 -3 3 C-2.01 2.01 -1.02 1.02 0 0 Z " fill="#EDF5E3" transform="translate(91,1)"/>
<path d="M0 0 C2.475 0.495 2.475 0.495 5 1 C3.625 3.5 3.625 3.5 2 6 C1.34 6 0.68 6 0 6 C0 4.02 0 2.04 0 0 Z " fill="#35529C" transform="translate(103,106)"/>
<path d="M0 0 C0.33 0.66 0.66 1.32 1 2 C3.02463255 2.65213292 3.02463255 2.65213292 5 3 C4.67 3.99 4.34 4.98 4 6 C1.11562221 4.70700306 -0.87219421 3.34058637 -3 1 C-2.01 0.67 -1.02 0.34 0 0 Z " fill="#EBF5DF" transform="translate(127,26)"/>
<path d="M0 0 C2.97 1.65 5.94 3.3 9 5 C4.70600835 6.07349791 3.80504787 5.79682816 0 4 C0 2.68 0 1.36 0 0 Z " fill="#7FB339" transform="translate(93,7)"/>
<path d="M0 0 C0.99 0.33 1.98 0.66 3 1 C2.67 1.66 2.34 2.32 2 3 C1.34 3 0.68 3 0 3 C-0.66 4.32 -1.32 5.64 -2 7 C-2.6875 5.1875 -2.6875 5.1875 -3 3 C-1.5625 1.25 -1.5625 1.25 0 0 Z " fill="#F32418" transform="translate(109,125)"/>
<path d="M0 0 C0.66 0 1.32 0 2 0 C0.87548273 2.9719385 -0.22293791 5.33440687 -2 8 C-2.66 8 -3.32 8 -4 8 C-2.87548273 5.0280615 -1.77706209 2.66559313 0 0 Z " fill="#F9EFD9" transform="translate(205,112)"/>
<path d="M0 0 C2.8992226 0.46761655 3.86675182 0.86675182 6 3 C3.525 4.485 3.525 4.485 1 6 C1 4.68 1 3.36 1 2 C0.34 1.67 -0.32 1.34 -1 1 C-0.67 0.67 -0.34 0.34 0 0 Z " fill="#F0F6E7" transform="translate(110,104)"/>
<path d="M0 0 C0.99 0.33 1.98 0.66 3 1 C1.625 3.5 1.625 3.5 0 6 C-0.66 6 -1.32 6 -2 6 C-1.125 1.125 -1.125 1.125 0 0 Z " fill="#EEF3EF" transform="translate(27,96)"/>
<path d="M0 0 C-0.598125 0.268125 -1.19625 0.53625 -1.8125 0.8125 C-3.97224808 1.98493467 -5.35790256 3.19369282 -7 5 C-8.32 3.68 -9.64 2.36 -11 1 C-7.26562152 0.12132271 -3.83225427 -0.08912219 0 0 Z " fill="#F4F7EA" transform="translate(110,9)"/>
<path d="M0 0 C1.65 0.99 3.3 1.98 5 3 C4.34 4.65 3.68 6.3 3 8 C2.34 6.68 1.68 5.36 1 4 C1.33 3.67 1.66 3.34 2 3 C1.34 2.67 0.68 2.34 0 2 C0 1.34 0 0.68 0 0 Z " fill="#F0F5DF" transform="translate(116,107)"/>
<path d="M0 0 C0.99 0.33 1.98 0.66 3 1 C2.34 1 1.68 1 1 1 C0.67 2.32 0.34 3.64 0 5 C-0.66 5 -1.32 5 -2 5 C-2.66 6.32 -3.32 7.64 -4 9 C-3.46930939 5.17902761 -2.50298434 2.93828597 0 0 Z " fill="#324B8C" transform="translate(26,103)"/>
<path d="M0 0 C0.99 0.33 1.98 0.66 3 1 C3 1.66 3 2.32 3 3 C2.34 3 1.68 3 1 3 C0.67 3.66 0.34 4.32 0 5 C-1.32 4.67 -2.64 4.34 -4 4 C-3.34 3.67 -2.68 3.34 -2 3 C-2 2.34 -2 1.68 -2 1 C-1.34 0.67 -0.68 0.34 0 0 Z " fill="#3C5B9A" transform="translate(109,100)"/>
</svg>
